<svg width="175" height="33" viewBox="0 0 175 33" fill="none" xmlns="http://www.w3.org/2000/svg">
<path d="M19.4233 32.0259L7.31762 15.3128L18.9264 0H28.7736L15.5387 16.6228L15.4935 13.777L29.2705 32.0259H19.4233ZM0 32.0259V0H8.08552V32.0259H0Z" fill="white"/>
<path d="M30.8571 32.0259V0H38.9426V32.0259H30.8571ZM37.2713 32.0259V25.2052H54.6168V32.0259H37.2713ZM37.2713 19.0168V12.3767H52.9907V19.0168H37.2713ZM37.2713 6.82075V0H54.3458V6.82075H37.2713Z" fill="white"/>
<path d="M65.1606 32.0259V0.225852H73.2461V32.0259H65.1606ZM50.6533 6.82075V0H87.7534V6.95626L50.6533 6.82075Z" fill="white"/>
<path d="M85.8222 32.0259V0H93.9078V32.0259H85.8222ZM92.2364 32.0259V25.2052H109.582V32.0259H92.2364ZM92.2364 19.0168V12.3767H107.956V19.0168H92.2364ZM92.2364 6.82075V0H109.311V6.82075H92.2364Z" fill="white"/>
<path d="M111.827 32.0259V0H117.654L129.94 18.5651H127.185L139.426 0H145.253V32.0259H137.258V13.3705L138.523 13.7318L131.16 24.7986H125.92L118.603 13.7318L119.867 13.3705V32.0259H111.827Z" fill="white"/>
<path d="M161.359 32.5228C158.648 32.5228 156.254 31.9657 154.176 30.8515C152.129 29.7072 150.533 28.1262 149.388 26.1086C148.244 24.0909 147.672 21.8023 147.672 19.2426V0H155.712V19.8299C155.712 20.9742 155.953 21.9679 156.435 22.8111C156.947 23.6242 157.624 24.2566 158.468 24.7083C159.341 25.1299 160.305 25.3407 161.359 25.3407C162.443 25.3407 163.391 25.1299 164.204 24.7083C165.017 24.2566 165.665 23.6242 166.147 22.8111C166.628 21.998 166.869 21.0194 166.869 19.875V0H175V19.2878C175 21.8475 174.428 24.1361 173.284 26.1537C172.139 28.1412 170.543 29.7072 168.495 30.8515C166.478 31.9657 164.099 32.5228 161.359 32.5228Z" fill="white"/>
</svg>
