<svg width="1384" height="258" viewBox="0 0 1384 258" fill="none" xmlns="http://www.w3.org/2000/svg">
<path d="M153.611 253.795L57.872 121.618L149.681 0.515686H227.558L122.889 131.978L122.531 109.472L231.488 253.795H153.611ZM0 253.795V0.515686H63.9449V253.795H0Z" fill="black"/>
<path d="M244.036 253.795V0.515686H307.981V253.795H244.036ZM294.763 253.795V199.852H431.941V253.795H294.763ZM294.763 150.911V98.3979H419.08V150.911H294.763ZM294.763 54.4581V0.515686H429.797V54.4581H294.763Z" fill="black"/>
<path d="M515.327 253.795V2.30186H579.272V253.795H515.327ZM400.595 54.4581V0.515686H694.004V55.5298L400.595 54.4581Z" fill="black"/>
<path d="M678.731 253.795V0.515686H742.676V253.795H678.731ZM729.458 253.795V199.852H866.636V253.795H729.458ZM729.458 150.911V98.3979H853.776V150.911H729.458ZM729.458 54.4581V0.515686H864.493V54.4581H729.458Z" fill="black"/>
<path d="M884.392 253.795V0.515686H930.475L1027.64 147.339H1005.85L1102.66 0.515686H1148.75V253.795H1085.52V106.257L1095.52 109.115L1037.29 196.637H995.849L937.977 109.115L947.98 106.257V253.795H884.392Z" fill="black"/>
<path d="M1276.12 257.724C1254.68 257.724 1235.75 253.319 1219.32 244.507C1203.12 235.457 1190.5 222.954 1181.45 206.997C1172.4 191.041 1167.87 172.941 1167.87 152.698V0.515686H1231.46V157.342C1231.46 166.392 1233.37 174.251 1237.18 180.919C1241.23 187.349 1246.58 192.351 1253.25 195.923C1260.16 199.257 1267.78 200.924 1276.12 200.924C1284.69 200.924 1292.19 199.257 1298.62 195.923C1305.05 192.351 1310.17 187.349 1313.98 180.919C1317.79 174.489 1319.7 166.749 1319.7 157.699V0.515686H1384V153.055C1384 173.298 1379.48 191.398 1370.43 207.354C1361.38 223.073 1348.75 235.457 1332.56 244.507C1316.6 253.319 1297.79 257.724 1276.12 257.724Z" fill="black"/>
</svg>
